<mxfile host="Electron" modified="2023-08-07T15:17:41.531Z" agent="Mozilla/5.0 (Windows NT 10.0; Win64; x64) AppleWebKit/537.36 (KHTML, like Gecko) draw.io/21.6.1 Chrome/112.0.5615.204 Electron/24.6.1 Safari/537.36" etag="eTS7oCt_p1pd8KsDiabS" version="21.6.1" type="device">
  <diagram name="Page-1" id="jrwQNthiReXm23ygNnVW">
    <mxGraphModel dx="1356" dy="868" grid="1" gridSize="10" guides="1" tooltips="1" connect="1" arrows="1" fold="1" page="1" pageScale="1" pageWidth="1169" pageHeight="1654" math="0" shadow="0">
      <root>
        <mxCell id="0" />
        <mxCell id="1" parent="0" />
        <mxCell id="PndbZCQQLmxQTpE3EY7A-10" value="&lt;font style=&quot;font-size: 14px;&quot;&gt;Valeurs possibles pour typeColoration&lt;/font&gt;" style="text;html=1;strokeColor=none;fillColor=none;align=center;verticalAlign=middle;whiteSpace=wrap;rounded=0;" vertex="1" parent="1">
          <mxGeometry x="60" width="110" height="60" as="geometry" />
        </mxCell>
        <mxCell id="PndbZCQQLmxQTpE3EY7A-11" value="" style="ellipse;whiteSpace=wrap;html=1;aspect=fixed;" vertex="1" parent="1">
          <mxGeometry x="210" y="210" width="50" height="50" as="geometry" />
        </mxCell>
        <mxCell id="PndbZCQQLmxQTpE3EY7A-12" value="" style="ellipse;whiteSpace=wrap;html=1;aspect=fixed;fillColor=#000000;" vertex="1" parent="1">
          <mxGeometry x="222.5" y="222.5" width="25" height="25" as="geometry" />
        </mxCell>
        <mxCell id="PndbZCQQLmxQTpE3EY7A-13" value="création de l&#39;objet" style="text;html=1;strokeColor=none;fillColor=none;align=center;verticalAlign=middle;whiteSpace=wrap;rounded=0;" vertex="1" parent="1">
          <mxGeometry x="205" y="180" width="60" height="30" as="geometry" />
        </mxCell>
        <mxCell id="PndbZCQQLmxQTpE3EY7A-14" value="" style="endArrow=blockThin;html=1;rounded=0;exitX=1;exitY=0.5;exitDx=0;exitDy=0;endFill=1;" edge="1" parent="1" source="PndbZCQQLmxQTpE3EY7A-11">
          <mxGeometry width="50" height="50" relative="1" as="geometry">
            <mxPoint x="260" y="237.5" as="sourcePoint" />
            <mxPoint x="360" y="160" as="targetPoint" />
          </mxGeometry>
        </mxCell>
        <mxCell id="PndbZCQQLmxQTpE3EY7A-15" value="&#39;U&#39;" style="rounded=1;whiteSpace=wrap;html=1;" vertex="1" parent="1">
          <mxGeometry x="217.5" y="265" width="35" height="60" as="geometry" />
        </mxCell>
        <mxCell id="PndbZCQQLmxQTpE3EY7A-16" value="" style="endArrow=block;html=1;rounded=0;exitX=1;exitY=0.5;exitDx=0;exitDy=0;endFill=1;" edge="1" parent="1" source="PndbZCQQLmxQTpE3EY7A-11">
          <mxGeometry width="50" height="50" relative="1" as="geometry">
            <mxPoint x="270" y="247.5" as="sourcePoint" />
            <mxPoint x="360" y="320" as="targetPoint" />
          </mxGeometry>
        </mxCell>
        <mxCell id="PndbZCQQLmxQTpE3EY7A-17" value="" style="ellipse;whiteSpace=wrap;html=1;aspect=fixed;fillColor=#000000;" vertex="1" parent="1">
          <mxGeometry x="360" y="140" width="25" height="25" as="geometry" />
        </mxCell>
        <mxCell id="PndbZCQQLmxQTpE3EY7A-18" value="AddColor" style="text;html=1;strokeColor=none;fillColor=none;align=center;verticalAlign=middle;whiteSpace=wrap;rounded=0;" vertex="1" parent="1">
          <mxGeometry x="342.5" y="110" width="60" height="30" as="geometry" />
        </mxCell>
        <mxCell id="PndbZCQQLmxQTpE3EY7A-19" value="&#39;U&#39;&lt;br&gt;&#39;C&#39;" style="rounded=1;whiteSpace=wrap;html=1;" vertex="1" parent="1">
          <mxGeometry x="355" y="170" width="35" height="60" as="geometry" />
        </mxCell>
        <mxCell id="PndbZCQQLmxQTpE3EY7A-20" value="&#39;U&#39;&lt;br&gt;&#39;T&#39;" style="rounded=1;whiteSpace=wrap;html=1;" vertex="1" parent="1">
          <mxGeometry x="355" y="340" width="35" height="60" as="geometry" />
        </mxCell>
        <mxCell id="PndbZCQQLmxQTpE3EY7A-21" value="AddMapping&lt;br&gt;UseTexture" style="text;html=1;strokeColor=none;fillColor=none;align=center;verticalAlign=middle;whiteSpace=wrap;rounded=0;" vertex="1" parent="1">
          <mxGeometry x="342.5" y="280" width="60" height="30" as="geometry" />
        </mxCell>
        <mxCell id="PndbZCQQLmxQTpE3EY7A-22" value="" style="ellipse;whiteSpace=wrap;html=1;aspect=fixed;fillColor=#000000;" vertex="1" parent="1">
          <mxGeometry x="360" y="310" width="25" height="25" as="geometry" />
        </mxCell>
        <mxCell id="PndbZCQQLmxQTpE3EY7A-25" value="" style="endArrow=blockThin;html=1;exitX=1;exitY=0.5;exitDx=0;exitDy=0;entryX=1;entryY=0.5;entryDx=0;entryDy=0;curved=1;endFill=1;startArrow=blockThin;startFill=1;" edge="1" parent="1" source="PndbZCQQLmxQTpE3EY7A-22" target="PndbZCQQLmxQTpE3EY7A-17">
          <mxGeometry width="50" height="50" relative="1" as="geometry">
            <mxPoint x="430" y="280" as="sourcePoint" />
            <mxPoint x="480" y="230" as="targetPoint" />
            <Array as="points">
              <mxPoint x="530" y="240" />
            </Array>
          </mxGeometry>
        </mxCell>
        <mxCell id="PndbZCQQLmxQTpE3EY7A-26" value="" style="endArrow=classic;html=1;rounded=0;" edge="1" parent="1">
          <mxGeometry width="50" height="50" relative="1" as="geometry">
            <mxPoint x="460" y="240" as="sourcePoint" />
            <mxPoint x="500" y="240" as="targetPoint" />
          </mxGeometry>
        </mxCell>
        <mxCell id="PndbZCQQLmxQTpE3EY7A-27" value="Les Deux" style="text;html=1;strokeColor=none;fillColor=none;align=center;verticalAlign=middle;whiteSpace=wrap;rounded=0;" vertex="1" parent="1">
          <mxGeometry x="490" y="200" width="60" height="30" as="geometry" />
        </mxCell>
        <mxCell id="PndbZCQQLmxQTpE3EY7A-28" value="" style="ellipse;whiteSpace=wrap;html=1;aspect=fixed;fillColor=#000000;" vertex="1" parent="1">
          <mxGeometry x="507.5" y="230" width="25" height="25" as="geometry" />
        </mxCell>
        <mxCell id="PndbZCQQLmxQTpE3EY7A-29" value="&#39;U&#39;&lt;br&gt;&#39;C&#39;&lt;br&gt;&#39;T&#39;" style="rounded=1;whiteSpace=wrap;html=1;" vertex="1" parent="1">
          <mxGeometry x="502.5" y="260" width="35" height="60" as="geometry" />
        </mxCell>
        <mxCell id="PndbZCQQLmxQTpE3EY7A-30" value="&lt;font style=&quot;font-size: 14px;&quot;&gt;Valeurs possibles pour typeShading&lt;/font&gt;" style="text;html=1;strokeColor=none;fillColor=none;align=center;verticalAlign=middle;whiteSpace=wrap;rounded=0;" vertex="1" parent="1">
          <mxGeometry x="10" y="400" width="110" height="60" as="geometry" />
        </mxCell>
        <mxCell id="PndbZCQQLmxQTpE3EY7A-31" value="" style="ellipse;whiteSpace=wrap;html=1;aspect=fixed;" vertex="1" parent="1">
          <mxGeometry x="192.5" y="540" width="50" height="50" as="geometry" />
        </mxCell>
        <mxCell id="PndbZCQQLmxQTpE3EY7A-32" value="" style="ellipse;whiteSpace=wrap;html=1;aspect=fixed;fillColor=#000000;" vertex="1" parent="1">
          <mxGeometry x="205" y="552.5" width="25" height="25" as="geometry" />
        </mxCell>
        <mxCell id="PndbZCQQLmxQTpE3EY7A-33" value="création de l&#39;objet" style="text;html=1;strokeColor=none;fillColor=none;align=center;verticalAlign=middle;whiteSpace=wrap;rounded=0;" vertex="1" parent="1">
          <mxGeometry x="187.5" y="510" width="60" height="30" as="geometry" />
        </mxCell>
        <mxCell id="PndbZCQQLmxQTpE3EY7A-35" value="&#39;S&#39;" style="rounded=1;whiteSpace=wrap;html=1;" vertex="1" parent="1">
          <mxGeometry x="200" y="595" width="35" height="60" as="geometry" />
        </mxCell>
        <mxCell id="PndbZCQQLmxQTpE3EY7A-36" value="" style="endArrow=block;html=1;rounded=0;exitX=1;exitY=0.5;exitDx=0;exitDy=0;endFill=1;entryX=0;entryY=0.5;entryDx=0;entryDy=0;" edge="1" source="PndbZCQQLmxQTpE3EY7A-31" parent="1" target="PndbZCQQLmxQTpE3EY7A-42">
          <mxGeometry width="50" height="50" relative="1" as="geometry">
            <mxPoint x="252.5" y="577.5" as="sourcePoint" />
            <mxPoint x="342.5" y="650" as="targetPoint" />
          </mxGeometry>
        </mxCell>
        <mxCell id="PndbZCQQLmxQTpE3EY7A-40" value="&#39;S&#39;&lt;br&gt;&#39;D&#39;" style="rounded=1;whiteSpace=wrap;html=1;" vertex="1" parent="1">
          <mxGeometry x="342.5" y="595" width="35" height="60" as="geometry" />
        </mxCell>
        <mxCell id="PndbZCQQLmxQTpE3EY7A-41" value="Est un Element Face" style="text;html=1;strokeColor=none;fillColor=none;align=center;verticalAlign=middle;whiteSpace=wrap;rounded=0;" vertex="1" parent="1">
          <mxGeometry x="322.5" y="505" width="80" height="40" as="geometry" />
        </mxCell>
        <mxCell id="PndbZCQQLmxQTpE3EY7A-42" value="" style="ellipse;whiteSpace=wrap;html=1;aspect=fixed;fillColor=#000000;" vertex="1" parent="1">
          <mxGeometry x="347.5" y="553" width="25" height="25" as="geometry" />
        </mxCell>
        <mxCell id="PndbZCQQLmxQTpE3EY7A-48" value="" style="endArrow=block;html=1;rounded=0;exitX=1;exitY=0.5;exitDx=0;exitDy=0;endFill=1;entryX=0;entryY=0.5;entryDx=0;entryDy=0;" edge="1" target="PndbZCQQLmxQTpE3EY7A-51" parent="1">
          <mxGeometry width="50" height="50" relative="1" as="geometry">
            <mxPoint x="372.5" y="565" as="sourcePoint" />
            <mxPoint x="472" y="650" as="targetPoint" />
          </mxGeometry>
        </mxCell>
        <mxCell id="PndbZCQQLmxQTpE3EY7A-49" value="AddNormals()&lt;br&gt;OU GenerateNormals()" style="text;html=1;strokeColor=none;fillColor=none;align=center;verticalAlign=middle;whiteSpace=wrap;rounded=0;" vertex="1" parent="1">
          <mxGeometry x="452" y="505" width="80" height="40" as="geometry" />
        </mxCell>
        <mxCell id="PndbZCQQLmxQTpE3EY7A-50" value="&#39;S&#39;&lt;br&gt;&#39;D&#39;&lt;br&gt;&#39;L&#39;" style="rounded=1;whiteSpace=wrap;html=1;" vertex="1" parent="1">
          <mxGeometry x="472" y="595" width="35" height="60" as="geometry" />
        </mxCell>
        <mxCell id="PndbZCQQLmxQTpE3EY7A-51" value="" style="ellipse;whiteSpace=wrap;html=1;aspect=fixed;fillColor=#000000;" vertex="1" parent="1">
          <mxGeometry x="477" y="553" width="25" height="25" as="geometry" />
        </mxCell>
      </root>
    </mxGraphModel>
  </diagram>
</mxfile>
